<svg xmlns="http://www.w3.org/2000/svg" viewBox="0 0 512 512" role="img" aria-label="Drake React PWA">
  <defs>
    <linearGradient id="g" x1="0" y1="0" x2="1" y2="1">
      <stop offset="0%" stop-color="#000000" />
      <stop offset="100%" stop-color="#111111" />
    </linearGradient>
  </defs>
  <rect x="32" y="32" width="448" height="448" rx="96" fill="url(#g)" />
  <g transform="translate(64 64) scale(16)">
    <path d="M12 12V4a1 1 0 0 1 1-1h6.297a1 1 0 0 1 .651 1.759l-4.696 4.025" stroke="#FBFF90" stroke-width="1.5"
      stroke-linecap="round" stroke-linejoin="round" fill="none" />
    <path d="m12 21-7.414-7.414A2 2 0 0 1 4 12.172V6.415a1.002 1.002 0 0 1 1.707-.707L20 20.009" stroke="#FBFF90"
      stroke-width="1.5" stroke-linecap="round" stroke-linejoin="round" fill="none" />
    <path
      d="m12.214 3.381 8.414 14.966a1 1 0 0 1-.167 1.199l-1.168 1.163a1 1 0 0 1-.706.291H6.351a1 1 0 0 1-.625-.219L3.25 18.8a1 1 0 0 1 .631-1.781l4.165.027"
      stroke="#FBFF90" stroke-width="1.5" stroke-linecap="round" stroke-linejoin="round" fill="none" />
  </g>
</svg>
